<svg width="22" height="22" viewBox="0 0 22 22" fill="none" xmlns="http://www.w3.org/2000/svg">
<path d="M21.2462 0.753732C21.1282 0.636196 20.979 0.554818 20.8162 0.519167C20.6535 0.483516 20.4839 0.495074 20.3275 0.552482L1.0775 7.55248C0.911485 7.61545 0.768556 7.72744 0.667695 7.87357C0.566835 8.0197 0.512817 8.19305 0.512817 8.37061C0.512817 8.54816 0.566835 8.72152 0.667695 8.86765C0.768556 9.01377 0.911485 9.12576 1.0775 9.18873L8.59375 12.19L14.1412 6.62498L15.375 7.85873L9.80125 13.4325L12.8112 20.9487C12.8761 21.1115 12.9883 21.2511 13.1334 21.3494C13.2785 21.4477 13.4498 21.5002 13.625 21.5C13.8018 21.4964 13.9734 21.4392 14.1171 21.3361C14.2608 21.233 14.3699 21.0888 14.43 20.9225L21.43 1.67248C21.4896 1.51767 21.504 1.34911 21.4715 1.18644C21.4389 1.02377 21.3608 0.873703 21.2462 0.753732Z" fill="white"/>
</svg>
