<svg width="14" height="12" viewBox="0 0 14 12" fill="none" xmlns="http://www.w3.org/2000/svg">
<path d="M8.0568 4.69041e-09C8.32167 -2.03741e-05 8.58196 0.0663655 8.81186 0.19258C9.04176 0.318795 9.2333 0.500457 9.36751 0.719567L9.91746 1.6187H11.3167C11.605 1.6187 11.8906 1.6732 12.157 1.77908C12.4234 1.88496 12.6654 2.04014 12.8693 2.23578C13.0732 2.43142 13.235 2.66368 13.3453 2.91929C13.4557 3.1749 13.5125 3.44887 13.5125 3.72554V9.884C13.5125 10.1607 13.4557 10.4346 13.3453 10.6903C13.235 10.9459 13.0732 11.1781 12.8693 11.3738C12.6654 11.5694 12.4234 11.7246 12.157 11.8305C11.8906 11.9364 11.605 11.9908 11.3167 11.9908H2.19577C1.61342 11.9908 1.05491 11.7689 0.643127 11.3738C0.23134 10.9787 0 10.4428 0 9.884V3.72554C0 3.16677 0.23134 2.63089 0.643127 2.23578C1.05491 1.84067 1.61342 1.6187 2.19577 1.6187H3.60107L4.19224 0.695582C4.32817 0.483095 4.51859 0.307587 4.74533 0.185813C4.97207 0.0640397 5.22756 6.59533e-05 5.48741 4.69041e-09H8.0568ZM6.75623 3.56348C5.94989 3.56348 5.17658 3.87082 4.60641 4.4179C4.03624 4.96497 3.71592 5.70696 3.71592 6.48064C3.71592 7.25432 4.03624 7.99632 4.60641 8.54339C5.17658 9.09047 5.94989 9.39781 6.75623 9.39781C7.56256 9.39781 8.33588 9.09047 8.90604 8.54339C9.47621 7.99632 9.79653 7.25432 9.79653 6.48064C9.79653 5.70696 9.47621 4.96497 8.90604 4.4179C8.33588 3.87082 7.56256 3.56348 6.75623 3.56348ZM6.75623 4.53587C7.0224 4.53587 7.28596 4.58617 7.53187 4.68391C7.77779 4.78164 8.00123 4.92489 8.18944 5.10548C8.37765 5.28607 8.52695 5.50046 8.62881 5.73641C8.73067 5.97236 8.78309 6.22525 8.78309 6.48064C8.78309 6.73604 8.73067 6.98893 8.62881 7.22488C8.52695 7.46083 8.37765 7.67522 8.18944 7.85581C8.00123 8.0364 7.77779 8.17965 7.53187 8.27738C7.28596 8.37512 7.0224 8.42542 6.75623 8.42542C6.21867 8.42542 5.70312 8.22053 5.32301 7.85581C4.9429 7.49109 4.72936 6.99643 4.72936 6.48064C4.72936 5.96486 4.9429 5.4702 5.32301 5.10548C5.70312 4.74076 6.21867 4.53587 6.75623 4.53587Z" fill="#140919"/>
</svg>
