<svg width="22" height="22" viewBox="0 0 22 22" fill="none" xmlns="http://www.w3.org/2000/svg">
<path class="loop_icon" fill-rule="evenodd" clip-rule="evenodd" d="M19.4965 4.39999L16.3476 1.25253L17.386 0.214127L21.786 4.61413C21.8542 4.68225 21.9084 4.76317 21.9454 4.85226C21.9824 4.94136 22.0014 5.03687 22.0014 5.13333C22.0014 5.22979 21.9824 5.3253 21.9454 5.41439C21.9084 5.50348 21.8542 5.58441 21.786 5.65253L17.386 10.0525L16.3476 9.01413L19.4965 5.86666H5.13342C4.16096 5.86666 3.22833 6.25297 2.5407 6.9406C1.85306 7.62824 1.46676 8.56087 1.46676 9.53333V11.7333H8.84514e-05V9.53333C8.84514e-05 8.17188 0.54092 6.8662 1.50361 5.90351C2.46629 4.94083 3.77198 4.39999 5.13342 4.39999H19.4965ZM22.0001 10.2667V12.4667C22.0001 13.8281 21.4593 15.1338 20.4966 16.0965C19.5339 17.0592 18.2282 17.6 16.8668 17.6H2.50369L5.65262 20.7475L4.61422 21.7859L0.214222 17.3859C0.076743 17.2483 -0.000488281 17.0618 -0.000488281 16.8674C-0.000488281 16.6729 0.076743 16.4864 0.214222 16.3489L4.61422 11.9489L5.65262 12.9859L2.50369 16.1333H16.8668C17.8392 16.1333 18.7718 15.747 19.4595 15.0594C20.1471 14.3718 20.5334 13.4391 20.5334 12.4667V10.2667H22.0001Z" fill="#ffcd00"/>
</svg>
