<svg width="19" height="21" viewBox="0 0 19 21" fill="none" xmlns="http://www.w3.org/2000/svg">
<path d="M1.61731 21C1.39777 21 1.18723 20.9086 1.03199 20.746C0.876758 20.5834 0.789547 20.3628 0.789547 20.1328L0.789551 1.055C0.789575 0.904309 0.827082 0.756228 0.898374 0.625349C0.969666 0.49447 1.07228 0.385312 1.19611 0.308634C1.31994 0.231957 1.4607 0.190405 1.60452 0.188077C1.74835 0.185748 1.89027 0.222722 2.0163 0.295355L18.5716 9.83427C18.7013 9.90913 18.8096 10.0191 18.8849 10.1527C18.9603 10.2863 19.0001 10.4387 19.0001 10.5939C19.0001 10.7491 18.9603 10.9015 18.8849 11.0351C18.8096 11.1687 18.7013 11.2787 18.5716 11.3536L2.01629 20.8925C1.89407 20.963 1.75683 21 1.61731 21Z" fill="white"/>
<rect x="19" y="21" width="2.6015" height="20.812" rx="1" transform="rotate(-180 19 21)" fill="white"/>
</svg>
