<svg width="29" height="32" viewBox="0 0 29 32" fill="none" xmlns="http://www.w3.org/2000/svg">
<path d="M1.3182 32C0.968592 32 0.633303 31.8595 0.386092 31.6095C0.138882 31.3594 0 31.0203 0 30.6667V1.33311C3.92177e-05 1.10142 0.0597681 0.873732 0.1733 0.672497C0.286831 0.471261 0.450247 0.303423 0.647438 0.185526C0.84463 0.0676279 1.06879 0.00373982 1.29783 0.000159258C1.52687 -0.0034213 1.75287 0.0534292 1.95357 0.165107L28.3176 14.8319C28.5243 14.947 28.6966 15.1161 28.8166 15.3215C28.9367 15.527 29 15.7612 29 15.9999C29 16.2385 28.9367 16.4728 28.8166 16.6782C28.6966 16.8837 28.5243 17.0528 28.3176 17.1679L1.95357 31.8347C1.75894 31.9431 1.54038 31.9999 1.3182 32Z" fill="white"/>
</svg>
