<svg width="19" height="21" viewBox="0 0 19 21" fill="none" xmlns="http://www.w3.org/2000/svg">
<path d="M17.3827 -1.97971e-06C17.6022 -1.96052e-06 17.8128 0.0913601 17.968 0.253986C18.1232 0.416613 18.2105 0.637182 18.2105 0.867172L18.2104 19.945C18.2104 20.0957 18.1729 20.2438 18.1016 20.3747C18.0303 20.5055 17.9277 20.6147 17.8039 20.6914C17.6801 20.768 17.5393 20.8096 17.3955 20.8119C17.2517 20.8143 17.1097 20.7773 16.9837 20.7046L0.428447 11.1657C0.298663 11.0909 0.190438 10.9809 0.115062 10.8473C0.0396852 10.7137 -7.73051e-05 10.5613 -7.72916e-05 10.4061C-7.7278e-05 10.2509 0.0396852 10.0985 0.115062 9.96489C0.190438 9.83128 0.298663 9.7213 0.428447 9.64644L16.9837 0.107529C17.1059 0.037033 17.2432 4.37845e-05 17.3827 -1.97971e-06Z" fill="white"/>
<rect width="2.6015" height="20.812" rx="1" fill="white"/>
</svg>
