<svg width="24" height="23" viewBox="0 0 24 23" fill="none" xmlns="http://www.w3.org/2000/svg">
<path d="M16.5281 15.7404L23.7231 8.66379L23.8143 8.5598C23.9494 8.37851 24.0145 8.15461 23.9977 7.92919C23.981 7.70377 23.8835 7.49196 23.7231 7.33262L16.5281 0.259164L16.4289 0.174366C15.8529 -0.257625 15.0049 0.158366 15.0049 0.924751V4.33268L14.6449 4.35668C8.94424 4.80787 5.60511 8.4158 4.80833 14.9597C4.70593 15.7996 5.66911 16.326 6.29309 15.7692C8.58265 13.7245 10.949 12.4541 13.405 11.9453C13.7985 11.8637 14.1937 11.8013 14.5921 11.7581L15.0049 11.7213V15.0749L15.0129 15.2061C15.1089 15.9308 15.9873 16.2716 16.5281 15.7404ZM14.7617 5.95185L16.6049 5.82865V2.57592L22.1184 7.99661L16.6049 13.4205V9.96937L14.4353 10.1646H14.4225C11.6978 10.4574 9.12664 11.5485 6.69949 13.3677C7.17628 11.2253 7.99066 9.61417 9.06104 8.4606C10.389 7.02863 12.245 6.15184 14.7617 5.95025V5.95185Z" fill="white"/>
<path d="M3.99992 1.59993C2.93907 1.59993 1.92168 2.02135 1.17155 2.77148C0.421419 3.52161 0 4.539 0 5.59985V18.3996C0 19.4604 0.421419 20.4778 1.17155 21.228C1.92168 21.9781 2.93907 22.3995 3.99992 22.3995H16.7997C17.8605 22.3995 18.8779 21.9781 19.628 21.228C20.3782 20.4778 20.7996 19.4604 20.7996 18.3996V16.7996C20.7996 16.5875 20.7153 16.384 20.5653 16.2339C20.4152 16.0839 20.2118 15.9996 19.9996 15.9996C19.7874 15.9996 19.5839 16.0839 19.4339 16.2339C19.2839 16.384 19.1996 16.5875 19.1996 16.7996V18.3996C19.1996 19.0361 18.9468 19.6465 18.4967 20.0966C18.0466 20.5467 17.4362 20.7995 16.7997 20.7995H3.99992C3.36341 20.7995 2.75297 20.5467 2.3029 20.0966C1.85282 19.6465 1.59997 19.0361 1.59997 18.3996V5.59985C1.59997 4.96334 1.85282 4.3529 2.3029 3.90283C2.75297 3.45275 3.36341 3.1999 3.99992 3.1999H8.79982C9.01199 3.1999 9.21547 3.11561 9.36549 2.96559C9.51552 2.81556 9.5998 2.61208 9.5998 2.39991C9.5998 2.18774 9.51552 1.98427 9.36549 1.83424C9.21547 1.68421 9.01199 1.59993 8.79982 1.59993H3.99992Z" fill="white"/>
</svg>
