<svg width="25" height="20" viewBox="0 0 25 20" fill="none" xmlns="http://www.w3.org/2000/svg">
<path d="M24.0513 16.6801C24.0386 16.6955 24.0248 16.7101 24.0111 16.7246C24.0052 16.7308 24 16.7376 23.9937 16.7437L21.3687 19.3687C21.2046 19.5328 20.9821 19.625 20.75 19.625C20.5179 19.625 20.2954 19.5328 20.1313 19.3687C19.9672 19.2046 19.875 18.9821 19.875 18.75C19.875 18.5179 19.9672 18.2954 20.1313 18.1313L21.2625 17H19.9774C18.7241 16.9988 17.4891 16.699 16.3747 16.1255C15.2603 15.552 14.2986 14.7214 13.5691 13.7022L9.00684 7.31485C8.43946 6.52222 7.69142 5.87615 6.82467 5.43013C5.95793 4.98411 4.9974 4.75097 4.02262 4.75001H1.5C1.26794 4.75001 1.04538 4.65782 0.881282 4.49373C0.717187 4.32963 0.625 4.10707 0.625 3.87501C0.625 3.64294 0.717187 3.42038 0.881282 3.25629C1.04538 3.0922 1.26794 3.00001 1.5 3.00001H4.02262C5.27592 3.00125 6.51089 3.30102 7.62528 3.8745C8.73967 4.44797 9.70142 5.27866 10.4309 6.29777L14.9932 12.6852C15.5605 13.4778 16.3086 14.1239 17.1753 14.5699C18.0421 15.0159 19.0026 15.2491 19.9774 15.25H21.2625L20.1313 14.1187C19.9672 13.9546 19.875 13.7321 19.875 13.5C19.875 13.2679 19.9672 13.0454 20.1313 12.8813C20.2954 12.7172 20.5179 12.625 20.75 12.625C20.9821 12.625 21.2046 12.7172 21.3687 12.8813L23.9937 15.5063C24 15.5124 24.0052 15.5192 24.0111 15.5254C24.0248 15.54 24.0385 15.5545 24.0513 15.5699C24.0612 15.582 24.07 15.5948 24.0792 15.6072C24.0868 15.6177 24.095 15.6278 24.1022 15.6386C24.1115 15.6525 24.1197 15.6668 24.128 15.6811C24.1342 15.6914 24.1406 15.7014 24.1463 15.712C24.154 15.7262 24.1604 15.7407 24.1671 15.7551C24.1726 15.7667 24.1783 15.778 24.1832 15.7898C24.1889 15.8036 24.1936 15.8177 24.1985 15.8318C24.2032 15.8447 24.2081 15.8575 24.2122 15.8706C24.2164 15.8848 24.2196 15.899 24.2231 15.9133C24.2265 15.9268 24.2303 15.9401 24.2329 15.9537C24.2362 15.9702 24.2383 15.987 24.2406 16.0037C24.2422 16.0153 24.2444 16.0267 24.2456 16.0384C24.2513 16.096 24.2513 16.154 24.2456 16.2116C24.2445 16.2233 24.2422 16.2347 24.2406 16.2463C24.2383 16.263 24.2362 16.2798 24.2329 16.2963C24.2303 16.31 24.2265 16.3232 24.2231 16.3368C24.2196 16.351 24.2164 16.3652 24.2122 16.3794C24.2081 16.3925 24.2032 16.4053 24.1986 16.4182C24.1936 16.4324 24.1889 16.4465 24.1833 16.4602C24.1782 16.4721 24.1725 16.4833 24.1671 16.4949C24.1604 16.5094 24.154 16.5238 24.1463 16.538C24.1406 16.5486 24.1342 16.5586 24.128 16.569C24.1197 16.5832 24.1116 16.5975 24.1022 16.6114C24.095 16.6222 24.0869 16.6323 24.0793 16.6428C24.07 16.6553 24.0612 16.6679 24.0513 16.6801ZM13.642 7.70106C13.7355 7.7679 13.8413 7.81567 13.9532 7.84163C14.0652 7.86758 14.1812 7.87122 14.2945 7.85232C14.4079 7.83343 14.5164 7.79238 14.6139 7.73151C14.7114 7.67065 14.7959 7.59117 14.8627 7.49762L14.9932 7.31496C15.5605 6.52231 16.3086 5.87622 17.1753 5.43018C18.0421 4.98414 19.0026 4.75098 19.9774 4.75001H21.2625L20.1313 5.88127C19.9672 6.04537 19.875 6.26794 19.875 6.50001C19.875 6.73208 19.9672 6.95464 20.1313 7.11874C20.2954 7.28284 20.5179 7.37503 20.75 7.37503C20.9821 7.37503 21.2046 7.28284 21.3687 7.11874L23.9937 4.49374C24 4.48762 24.0052 4.48084 24.0111 4.4746C24.0248 4.46005 24.0385 4.44551 24.0513 4.43009C24.0612 4.41805 24.07 4.40526 24.0792 4.39279C24.0868 4.38229 24.095 4.37223 24.1022 4.3614C24.1115 4.34751 24.1197 4.33318 24.128 4.31896C24.1342 4.30857 24.1406 4.29862 24.1463 4.28801C24.154 4.27379 24.1604 4.25935 24.1671 4.24491C24.1726 4.23332 24.1783 4.22205 24.1832 4.21024C24.1889 4.19646 24.1936 4.18235 24.1985 4.16824C24.2032 4.15534 24.2081 4.14254 24.2122 4.12941C24.2164 4.11519 24.2196 4.10098 24.2231 4.08676C24.2265 4.07319 24.2303 4.05996 24.2329 4.04629C24.2362 4.02977 24.2384 4.01304 24.2406 3.9963C24.2422 3.98471 24.2444 3.97334 24.2456 3.96163C24.2513 3.90402 24.2513 3.84599 24.2456 3.78838C24.2445 3.77668 24.2422 3.7653 24.2406 3.75371C24.2384 3.73698 24.2362 3.72024 24.2329 3.70373C24.2303 3.69005 24.2265 3.67682 24.2231 3.66326C24.2196 3.64904 24.2164 3.63482 24.2122 3.6206C24.2081 3.60748 24.2032 3.59468 24.1986 3.58177C24.1936 3.56766 24.1889 3.55355 24.1833 3.53977C24.1782 3.52796 24.1726 3.51669 24.1671 3.5051C24.1604 3.49066 24.154 3.47623 24.1463 3.46201C24.1406 3.4514 24.1342 3.44145 24.128 3.43105C24.1197 3.41684 24.1116 3.40251 24.1022 3.38862C24.095 3.37779 24.0869 3.36773 24.0793 3.35723C24.07 3.34476 24.0612 3.33207 24.0513 3.31993C24.0386 3.30451 24.0248 3.28996 24.0111 3.27541C24.0052 3.26918 24 3.2624 23.9937 3.25627L21.3687 0.631273C21.2875 0.550019 21.191 0.485566 21.0849 0.441592C20.9787 0.397618 20.8649 0.374985 20.75 0.374985C20.6351 0.374985 20.5213 0.397618 20.4151 0.441592C20.309 0.485566 20.2125 0.550019 20.1313 0.631273C20.05 0.712526 19.9856 0.808988 19.9416 0.915151C19.8976 1.02131 19.875 1.1351 19.875 1.25001C19.875 1.36492 19.8976 1.4787 19.9416 1.58486C19.9856 1.69103 20.05 1.78749 20.1313 1.86874L21.2625 3.00001H19.9774C18.7241 3.00125 17.4891 3.30102 16.3747 3.8745C15.2603 4.44797 14.2986 5.27866 13.5691 6.29777L13.4386 6.48054C13.3718 6.57404 13.3241 6.67978 13.2981 6.79173C13.2722 6.90368 13.2686 7.01964 13.2875 7.13299C13.3064 7.24634 13.3474 7.35486 13.4082 7.45235C13.4691 7.54984 13.5485 7.63439 13.642 7.70116V7.70106ZM10.3578 12.299C10.2644 12.2321 10.1586 12.1844 10.0467 12.1585C9.93474 12.1325 9.81878 12.1289 9.70543 12.1478C9.59209 12.1667 9.48358 12.2077 9.3861 12.2686C9.28862 12.3294 9.20409 12.4089 9.13733 12.5024L9.00684 12.6851C8.43947 13.4777 7.69144 14.1238 6.82469 14.5698C5.95794 15.0159 4.99741 15.249 4.02262 15.25H1.5C1.26794 15.25 1.04538 15.3422 0.881282 15.5063C0.717187 15.6704 0.625 15.8929 0.625 16.125C0.625 16.3571 0.717187 16.5796 0.881282 16.7437C1.04538 16.9078 1.26794 17 1.5 17H4.02262C5.27592 16.9988 6.51089 16.699 7.62528 16.1255C8.73967 15.552 9.70142 14.7214 10.4309 13.7022L10.5614 13.5195C10.6282 13.426 10.6759 13.3202 10.7019 13.2083C10.7278 13.0963 10.7314 12.9804 10.7125 12.867C10.6936 12.7537 10.6526 12.6452 10.5918 12.5477C10.5309 12.4502 10.4515 12.3656 10.358 12.2989L10.3578 12.299Z" fill="#ffcd00"/>
</svg>
