<svg width="29" height="23" viewBox="0 0 29 23" fill="none" xmlns="http://www.w3.org/2000/svg">
<path d="M1.5835 15.322V7.67667C1.5835 6.93525 2.16216 6.33334 2.87516 6.33334H7.50708C7.67801 6.33273 7.84705 6.29751 8.004 6.2298C8.16095 6.1621 8.30256 6.0633 8.42029 5.93938L12.2953 1.56321C13.109 0.715882 14.5002 1.31651 14.5002 2.51388V20.4861C14.5002 21.6925 13.0922 22.288 12.2837 21.4239L8.42158 17.0722C8.30351 16.9448 8.16047 16.843 8.00136 16.7732C7.84225 16.7035 7.67048 16.6672 7.49675 16.6667H2.87516C2.16216 16.6667 1.5835 16.0648 1.5835 15.322Z" stroke="white" stroke-width="2" stroke-linecap="round" stroke-linejoin="round"/>
<path d="M19.667 6.97917C21.3888 9.27575 21.3888 13.7243 19.667 16.0208" stroke="white" stroke-width="2" stroke-linecap="round" stroke-linejoin="round"/>
<path d="M23.542 2.45834C28.6932 7.37701 28.7242 15.6553 23.542 20.5417" stroke="white" stroke-width="2" stroke-linecap="round" stroke-linejoin="round"/>
</svg>
